.
..............................Site Info...........................

 -   http://www.scenetime.com  *_*   

SceneTime is going to Close sign up on march/1, hurry up! get in before the doors are closed.

     We care to share . Join us on  http://www.scenetime.com 

    Be the first to get new release at  http://www.scenetime.com

        Seed back for speed


...................................NFO:.................................................








































          
          
              
              
                    
                    
                    
                    

Dawn.of.the.Dead.22.Year.Reunion.2000.DVDRiP.AC3-2.0.XviD-SiC

Poster:
[img]http://img138.imageshack.us/img138/6673/dawnofthedeadreunion.jpg[/img]

IMDB Link:
http://stores.sumogorilla.com/-strse-73/DAWN-OF-THE-DEAD-cln-/Detail.bok

Description:
Almost 2 hours of home video footage from Cinema Wasteland during the 22 year reunion of George Romero's Dawn Of The Dead. Includes interviews, Q&A sessions, Movie Clips, and more! Featuring Ken Foree, David Emge, Scott Reiniger, and Tom Savini.


General
Complete name                    : Dawn.of.the.Dead.22.Year.Reunion.2000.DVDRiP.AC3-2.0.XviD-SiC.avi
Format                           : AVI
Format/Info                      : Audio Video Interleave
File size                        : 1.37 GiB
Duration                         : 2h 0mn
Overall bit rate                 : 1 629 Kbps

Video
ID                               : 0
Format                           : MPEG-4 Visual
Format profile                   : Simple@L3
Format settings, BVOP            : 2
Format settings, QPel            : No
Format settings, GMC             : No warppoints
Format settings, Matrix          : Default (H.263)
Muxing mode                      : Packed bitstream
Codec ID                         : XVID
Codec ID/Hint                    : XviD
Duration                         : 2h 0mn
Bit rate                         : 1 364 Kbps
Width                            : 656 pixels
Height                           : 480 pixels
Display aspect ratio             : 4:3
Frame rate                       : 29.970 fps
Color space                      : YUV
Chroma subsampling               : 4:2:0
Bit depth                        : 8 bits
Scan type                        : Progressive
Compression mode                 : Lossy
Bits/(Pixel*Frame)               : 0.145
Stream size                      : 1.14 GiB (84%)
Writing library                  : XviD 1.0.3 (UTC 2004-12-20)

Audio
ID                               : 1
Format                           : AC-3
Format/Info                      : Audio Coding 3
Mode extension                   : CM (complete main)
Codec ID                         : 2000
Duration                         : 2h 0mn
Bit rate mode                    : Constant
Bit rate                         : 256 Kbps
Channel(s)                       : 2 channels
Channel positions                : Front: L R
Sampling rate                    : 48.0 KHz
Bit depth                        : 16 bits
Compression mode                 : Lossy
Stream size                      : 220 MiB (16%)
Alignment                        : Aligned on interleaves
Interleave, duration             : 64 ms (1.92 video frames)
Interleave, preload duration     : 192 ms
Title                            : VTS_01_1 T80 2_0ch 256Kbps DELAY 0ms_new








Screenshots:
[img]http://img190.imageshack.us/img190/1439/vlcsnap2012021712h04m05.png[/img]
[img]http://img848.imageshack.us/img848/2930/vlcsnap2012021712h04m01.png[/img]
[img]http://img29.imageshack.us/img29/5348/vlcsnap2012021712h03m56.png[/img]
[img]http://img3.imageshack.us/img3/2265/vlcsnap2012021712h03m46.png[/img]

Note: Quality isn't that great, nor is the audio, but it is watchable.  This was obviously transfered from some other form of video to DVD.

Source: 

Enjoy!

Respects to T00NG0D, ELEKTRI4KA, PA, YeFsTe, MrRep and everyone in the struggle...RiP MU & BTJ